<svg width="357" height="358" xmlns="http://www.w3.org/2000/svg" xmlns:xlink="http://www.w3.org/1999/xlink" xml:space="preserve" overflow="hidden"><g transform="translate(-1957 -1104)"><g><path d="M2102.94 1353.77C2105.67 1353.77 2107.87 1355.98 2107.87 1358.7 2107.87 1361.42 2105.67 1363.63 2102.94 1363.63 2100.23 1363.63 2098.01 1361.42 2098.01 1358.7 2098.01 1355.98 2100.23 1353.77 2102.94 1353.77ZM2196.1 1344.76C2198.82 1344.76 2201.03 1346.97 2201.03 1349.69 2201.03 1352.4 2198.82 1354.61 2196.1 1354.61 2193.39 1354.61 2191.17 1352.4 2191.17 1349.69 2191.17 1346.97 2193.39 1344.76 2196.1 1344.76ZM2163.05 1308.7C2165.76 1308.7 2167.97 1310.91 2167.97 1313.62 2167.97 1316.34 2165.76 1318.55 2163.05 1318.55 2160.33 1318.55 2158.12 1316.34 2158.12 1313.62 2158.12 1310.91 2160.33 1308.7 2163.05 1308.7ZM2096.93 1305.69C2099.65 1305.69 2101.86 1307.9 2101.86 1310.62 2101.86 1313.34 2099.65 1315.55 2096.93 1315.55 2094.22 1315.55 2092 1313.34 2092 1310.62 2092 1307.9 2094.22 1305.69 2096.93 1305.69ZM2160.04 1257.61C2162.76 1257.61 2164.97 1259.82 2164.97 1262.54 2164.97 1265.25 2162.76 1267.46 2160.04 1267.46 2157.33 1267.46 2155.11 1265.25 2155.11 1262.54 2155.11 1259.82 2157.33 1257.61 2160.04 1257.61ZM2063.88 1257.61C2066.59 1257.61 2068.81 1259.82 2068.81 1262.54 2068.81 1265.25 2066.59 1267.46 2063.88 1267.46 2061.16 1267.46 2058.95 1265.25 2058.95 1262.54 2058.95 1259.82 2061.16 1257.61 2063.88 1257.61ZM2093.93 1212.53C2096.64 1212.53 2098.86 1214.74 2098.86 1217.46 2098.86 1220.18 2096.64 1222.39 2093.93 1222.39 2091.22 1222.39 2089 1220.18 2089 1217.46 2089 1214.74 2091.22 1212.53 2093.93 1212.53ZM2184.08 1203.51C2186.8 1203.51 2189.01 1205.72 2189.01 1208.44 2189.01 1211.16 2186.8 1213.37 2184.08 1213.37 2181.37 1213.37 2179.15 1211.16 2179.15 1208.44 2179.15 1205.72 2181.37 1203.51 2184.08 1203.51ZM2164.68 1170.19 2216.06 1201.51 2216.06 1235.97C2216.06 1237.99 2217.14 1239.84 2218.89 1240.84L2246.11 1256.26 2246.11 1273.47 2194.6 1273.47C2191.51 1273.47 2189.01 1275.97 2189.01 1279.06L2189.01 1306.53 2177.44 1306.53C2174.81 1301.21 2169.38 1297.52 2163.05 1297.52 2154.17 1297.52 2146.94 1304.74 2146.94 1313.62 2146.94 1322.5 2154.17 1329.73 2163.05 1329.73 2170.51 1329.73 2176.74 1324.61 2178.57 1317.71L2194.6 1317.71C2197.69 1317.71 2200.19 1315.21 2200.19 1312.12L2200.19 1284.65 2246.11 1284.65 2246.11 1304.85 2215.9 1321.85C2214.14 1322.84 2213.05 1324.7 2213.05 1326.72L2213.05 1361.33 2173.15 1384.93 2173.15 1356.78 2181.71 1356.78C2184.35 1362.1 2189.77 1365.79 2196.1 1365.79 2204.98 1365.79 2212.21 1358.57 2212.21 1349.69 2212.21 1340.8 2204.98 1333.58 2196.1 1333.58 2188.65 1333.58 2182.41 1338.7 2180.59 1345.6L2167.56 1345.6C2164.46 1345.6 2161.97 1348.1 2161.97 1351.19L2161.97 1391.54 2159.7 1392.88 2140.09 1381.52 2140.09 1236.57 2155.96 1236.57 2155.96 1247.02C2149.06 1248.84 2143.93 1255.07 2143.93 1262.54 2143.93 1271.42 2151.16 1278.64 2160.04 1278.64 2168.93 1278.64 2176.15 1271.42 2176.15 1262.54 2176.15 1256.21 2172.45 1250.78 2167.14 1248.15L2167.14 1236.57 2185.58 1236.57C2188.67 1236.57 2191.17 1234.07 2191.17 1230.98L2191.17 1222.83C2196.49 1220.2 2200.19 1214.77 2200.19 1208.44 2200.19 1199.56 2192.97 1192.33 2184.08 1192.33 2175.2 1192.33 2167.97 1199.56 2167.97 1208.44 2167.97 1215.91 2173.1 1222.14 2179.99 1223.96L2179.99 1225.39 2140.09 1225.39 2140.09 1184.91ZM2104.32 1170.18 2128.91 1184.91 2128.91 1249.43 2095.43 1249.43C2092.34 1249.43 2089.84 1251.93 2089.84 1255.02L2089.84 1296.23C2084.52 1298.86 2080.82 1304.29 2080.82 1310.62 2080.82 1319.5 2088.05 1326.73 2096.93 1326.73 2105.82 1326.73 2113.04 1319.5 2113.04 1310.62 2113.04 1303.16 2107.92 1296.92 2101.02 1295.1L2101.02 1260.61 2128.91 1260.61 2128.91 1379.36 2106.24 1392.85 2052.94 1361.32 2052.94 1326.72C2052.94 1324.68 2051.84 1322.81 2050.05 1321.82L2048.05 1320.72 2062.8 1320.72 2062.8 1360.2C2062.8 1363.29 2065.3 1365.79 2068.39 1365.79L2088.56 1365.79C2091.19 1371.11 2096.62 1374.81 2102.94 1374.81 2111.83 1374.81 2119.05 1367.58 2119.05 1358.7 2119.05 1349.82 2111.83 1342.59 2102.94 1342.59 2095.49 1342.59 2089.25 1347.72 2087.43 1354.61L2073.98 1354.61 2073.98 1315.13C2073.98 1312.04 2071.47 1309.54 2068.39 1309.54L2027.72 1309.54 2022.89 1306.89 2022.89 1256.26 2050.1 1240.83C2051.86 1239.83 2052.94 1237.97 2052.94 1235.96L2052.94 1221.54 2059.79 1221.54 2059.79 1247.02C2052.9 1248.84 2047.77 1255.07 2047.77 1262.54 2047.77 1271.42 2054.99 1278.64 2063.88 1278.64 2072.76 1278.64 2079.99 1271.42 2079.99 1262.54 2079.99 1256.21 2076.29 1250.79 2070.97 1248.15L2070.97 1221.54 2078.42 1221.54C2080.24 1228.44 2086.47 1233.57 2093.93 1233.57 2102.81 1233.57 2110.04 1226.34 2110.04 1217.46 2110.04 1208.58 2102.81 1201.35 2093.93 1201.35 2087.61 1201.35 2082.18 1205.05 2079.54 1210.36L2052.94 1210.36 2052.94 1201.5ZM2107.16 1158.86C2105.37 1157.78 2103.15 1157.79 2101.38 1158.88L2044.44 1193.59C2042.78 1194.61 2041.76 1196.41 2041.76 1198.37L2041.76 1232.7 2014.54 1248.14C2012.79 1249.14 2011.71 1250.99 2011.71 1253.01L2011.71 1310.19C2011.71 1312.23 2012.82 1314.1 2014.6 1315.09L2041.76 1330.02 2041.76 1364.51C2041.76 1366.48 2042.8 1368.31 2044.5 1369.32L2103.41 1404.15C2105.17 1405.2 2107.35 1405.2 2109.11 1404.15L2132.67 1390.13 2156.92 1404.19C2157.79 1404.69 2158.76 1404.94 2159.72 1404.94 2160.71 1404.94 2161.69 1404.68 2162.57 1404.16L2221.49 1369.33C2223.19 1368.32 2224.23 1366.49 2224.23 1364.52L2224.23 1329.99 2254.44 1312.98C2256.2 1311.99 2257.29 1310.13 2257.29 1308.12L2257.29 1253.01C2257.29 1251 2256.2 1249.14 2254.45 1248.15L2227.24 1232.71 2227.24 1198.38C2227.24 1196.43 2226.22 1194.62 2224.55 1193.6L2167.62 1158.88C2165.84 1157.81 2163.62 1157.79 2161.83 1158.86L2134.51 1175.22ZM2049.62 1105 2219.38 1105C2269.98 1105 2311 1146.02 2311 1196.62L2311 1366.38C2311 1416.98 2269.98 1458 2219.38 1458L2049.62 1458C1999.02 1458 1958 1416.98 1958 1366.38L1958 1196.62C1958 1146.02 1999.02 1105 2049.62 1105Z" fill="#01A88D" fill-rule="evenodd" fill-opacity="1"/></g></g></svg>