<svg width="358" height="362" xmlns="http://www.w3.org/2000/svg" xmlns:xlink="http://www.w3.org/1999/xlink" xml:space="preserve" overflow="hidden"><g transform="translate(-3359 -1475)"><g><path d="M3567.04 1654.66C3560.59 1654.66 3555.36 1659.89 3555.36 1666.35 3555.36 1672.8 3560.59 1678.03 3567.04 1678.03 3573.5 1678.03 3578.73 1672.8 3578.73 1666.35 3578.73 1659.89 3573.5 1654.66 3567.04 1654.66ZM3510.96 1654.66C3504.5 1654.66 3499.27 1659.89 3499.27 1666.35 3499.27 1672.8 3504.5 1678.03 3510.96 1678.03 3517.41 1678.03 3522.64 1672.8 3522.64 1666.35 3522.64 1659.89 3517.41 1654.66 3510.96 1654.66ZM3517.87 1603.81C3535.63 1625.64 3562.27 1638.31 3590.41 1638.3 3597.42 1638.3 3604.15 1637.46 3610.69 1636.06 3612.66 1642.7 3613.78 1649.71 3613.78 1657 3613.78 1698.22 3580.22 1731.78 3539 1731.78 3497.78 1731.78 3464.22 1698.22 3464.22 1657 3464.22 1656.53 3464.31 1656.06 3464.22 1655.69 3488.52 1646.58 3507.95 1627.79 3517.87 1603.81ZM3502.36 1591.85C3496.46 1609.43 3484.28 1624.21 3468.15 1633.35 3474.04 1615.77 3486.23 1600.99 3502.36 1591.85ZM3539 1582.22C3566.11 1582.22 3589.85 1596.8 3602.94 1618.49 3598.92 1619.14 3594.71 1619.61 3590.41 1619.61 3563.3 1619.61 3539.56 1605.03 3526.47 1583.34 3530.49 1582.69 3534.7 1582.22 3539 1582.22ZM3539 1563.52C3487.4 1563.52 3445.52 1605.4 3445.52 1657 3445.52 1708.6 3487.4 1750.47 3539 1750.47 3590.6 1750.47 3632.47 1708.6 3632.47 1657 3632.47 1605.4 3590.6 1563.52 3539 1563.52ZM3453.88 1480 3624.12 1480C3674.86 1480 3716 1521.14 3716 1571.88L3716 1742.12C3716 1792.86 3674.86 1834 3624.12 1834L3453.88 1834C3403.14 1834 3362 1792.86 3362 1742.12L3362 1571.88C3362 1521.14 3403.14 1480 3453.88 1480Z" fill="#FF9902" fill-rule="evenodd" fill-opacity="1"/></g></g></svg>